<?xml version="1.0" encoding="UTF-8" standalone="no"?>
<!DOCTYPE svg PUBLIC "-//W3C//DTD SVG 1.1//EN"
 "http://www.w3.org/Graphics/SVG/1.1/DTD/svg11.dtd">
<!-- Generated by graphviz version 3.0.0 (20220226.1711)
 -->
<!-- Title: dependencies Pages: 1 -->
<svg width="639pt" height="174pt"
 viewBox="0.00 0.00 639.00 173.80" xmlns="http://www.w3.org/2000/svg" xmlns:xlink="http://www.w3.org/1999/xlink">
<g id="graph0" class="graph" transform="scale(1 1) rotate(0) translate(4 169.8)">
<title>dependencies</title>
<polygon fill="white" stroke="transparent" points="-4,4 -4,-169.8 635,-169.8 635,4 -4,4"/>
<text text-anchor="middle" x="315.5" y="-8.2" font-family="sans-serif" font-size="14.00">dependencies</text>
<g id="clust1" class="cluster">
<title>cluster_AppModule</title>
<polygon fill="none" stroke="black" stroke-dasharray="1,5" points="8,-32.8 8,-157.8 623,-157.8 623,-32.8 8,-32.8"/>
</g>
<g id="clust6" class="cluster">
<title>cluster_AppModule_providers</title>
<polygon fill="none" stroke="black" points="485,-40.8 485,-92.8 615,-92.8 615,-40.8 485,-40.8"/>
</g>
<g id="clust3" class="cluster">
<title>cluster_AppModule_imports</title>
<polygon fill="none" stroke="black" points="16,-40.8 16,-92.8 477,-92.8 477,-40.8 16,-40.8"/>
</g>
<!-- HealthModule -->
<g id="node1" class="node">
<title>HealthModule</title>
<polygon fill="#8dd3c7" stroke="black" points="469.37,-84.8 466.37,-88.8 445.37,-88.8 442.37,-84.8 372.63,-84.8 372.63,-48.8 469.37,-48.8 469.37,-84.8"/>
<text text-anchor="middle" x="421" y="-62.6" font-family="Times,serif" font-size="14.00">HealthModule</text>
</g>
<!-- AppModule -->
<g id="node5" class="node">
<title>AppModule</title>
<polygon fill="#8dd3c7" stroke="black" points="343.66,-149.8 340.66,-153.8 319.66,-153.8 316.66,-149.8 260.34,-149.8 260.34,-113.8 343.66,-113.8 343.66,-149.8"/>
<text text-anchor="middle" x="302" y="-127.6" font-family="Times,serif" font-size="14.00">AppModule</text>
</g>
<!-- HealthModule&#45;&gt;AppModule -->
<g id="edge1" class="edge">
<title>HealthModule&#45;&gt;AppModule</title>
<path fill="none" stroke="black" d="M421,-84.82C421,-102.17 421,-125.8 421,-125.8 421,-125.8 353.95,-125.8 353.95,-125.8"/>
<polygon fill="black" stroke="black" points="353.95,-122.3 343.95,-125.8 353.95,-129.3 353.95,-122.3"/>
</g>
<!-- ProjectsModule -->
<g id="node2" class="node">
<title>ProjectsModule</title>
<polygon fill="#8dd3c7" stroke="black" points="354.16,-84.8 351.16,-88.8 330.16,-88.8 327.16,-84.8 249.84,-84.8 249.84,-48.8 354.16,-48.8 354.16,-84.8"/>
<text text-anchor="middle" x="302" y="-62.6" font-family="Times,serif" font-size="14.00">ProjectsModule</text>
</g>
<!-- ProjectsModule&#45;&gt;AppModule -->
<g id="edge2" class="edge">
<title>ProjectsModule&#45;&gt;AppModule</title>
<path fill="none" stroke="black" d="M302,-84.91C302,-84.91 302,-103.79 302,-103.79"/>
<polygon fill="black" stroke="black" points="298.5,-103.79 302,-113.79 305.5,-103.79 298.5,-103.79"/>
</g>
<!-- ReportsModule -->
<g id="node3" class="node">
<title>ReportsModule</title>
<polygon fill="#8dd3c7" stroke="black" points="231.6,-84.8 228.6,-88.8 207.6,-88.8 204.6,-84.8 128.4,-84.8 128.4,-48.8 231.6,-48.8 231.6,-84.8"/>
<text text-anchor="middle" x="180" y="-62.6" font-family="Times,serif" font-size="14.00">ReportsModule</text>
</g>
<!-- ReportsModule&#45;&gt;AppModule -->
<g id="edge3" class="edge">
<title>ReportsModule&#45;&gt;AppModule</title>
<path fill="none" stroke="black" d="M180,-84.82C180,-102.17 180,-125.8 180,-125.8 180,-125.8 250.01,-125.8 250.01,-125.8"/>
<polygon fill="black" stroke="black" points="250.01,-129.3 260.01,-125.8 250.01,-122.3 250.01,-129.3"/>
</g>
<!-- TagsModule -->
<g id="node4" class="node">
<title>TagsModule</title>
<polygon fill="#8dd3c7" stroke="black" points="110.27,-84.8 107.27,-88.8 86.27,-88.8 83.27,-84.8 23.73,-84.8 23.73,-48.8 110.27,-48.8 110.27,-84.8"/>
<text text-anchor="middle" x="67" y="-62.6" font-family="Times,serif" font-size="14.00">TagsModule</text>
</g>
<!-- TagsModule&#45;&gt;AppModule -->
<g id="edge4" class="edge">
<title>TagsModule&#45;&gt;AppModule</title>
<path fill="none" stroke="black" d="M67,-85.08C67,-106.12 67,-137.8 67,-137.8 67,-137.8 250.26,-137.8 250.26,-137.8"/>
<polygon fill="black" stroke="black" points="250.26,-141.3 260.26,-137.8 250.26,-134.3 250.26,-141.3"/>
</g>
<!-- AppService -->
<g id="node6" class="node">
<title>AppService</title>
<ellipse fill="#fdb462" stroke="black" cx="550" cy="-66.8" rx="56.75" ry="18"/>
<text text-anchor="middle" x="550" y="-62.6" font-family="Times,serif" font-size="14.00">AppService</text>
</g>
<!-- AppService&#45;&gt;AppModule -->
<g id="edge5" class="edge">
<title>AppService&#45;&gt;AppModule</title>
<path fill="none" stroke="black" d="M550,-85.08C550,-106.12 550,-137.8 550,-137.8 550,-137.8 353.79,-137.8 353.79,-137.8"/>
<polygon fill="black" stroke="black" points="353.79,-134.3 343.79,-137.8 353.79,-141.3 353.79,-134.3"/>
</g>
</g>
</svg>
