<?xml version="1.0" encoding="UTF-8" standalone="no"?>
<!DOCTYPE svg PUBLIC "-//W3C//DTD SVG 1.1//EN"
 "http://www.w3.org/Graphics/SVG/1.1/DTD/svg11.dtd">
<!-- Generated by graphviz version 3.0.0 (20220226.1711)
 -->
<!-- Title: dependencies Pages: 1 -->
<svg width="740pt" height="250pt"
 viewBox="0.00 0.00 740.00 249.80" xmlns="http://www.w3.org/2000/svg" xmlns:xlink="http://www.w3.org/1999/xlink">
<g id="graph0" class="graph" transform="scale(1 1) rotate(0) translate(4 245.8)">
<title>dependencies</title>
<polygon fill="white" stroke="transparent" points="-4,4 -4,-245.8 736,-245.8 736,4 -4,4"/>
<text text-anchor="middle" x="366" y="-8.2" font-family="sans-serif" font-size="14.00">dependencies</text>
<g id="clust1" class="cluster">
<title>cluster_AppModule</title>
<polygon fill="none" stroke="black" stroke-dasharray="1,5" points="8,-108.8 8,-233.8 623,-233.8 623,-108.8 8,-108.8"/>
</g>
<g id="clust3" class="cluster">
<title>cluster_AppModule_imports</title>
<polygon fill="none" stroke="black" points="154,-116.8 154,-168.8 615,-168.8 615,-116.8 154,-116.8"/>
</g>
<g id="clust6" class="cluster">
<title>cluster_AppModule_providers</title>
<polygon fill="none" stroke="black" points="16,-116.8 16,-168.8 146,-168.8 146,-116.8 16,-116.8"/>
</g>
<g id="clust7" class="cluster">
<title>cluster_HealthModule</title>
<polygon fill="none" stroke="black" stroke-dasharray="1,5" points="40,-32.8 40,-100.8 204,-100.8 204,-32.8 40,-32.8"/>
</g>
<g id="clust12" class="cluster">
<title>cluster_HealthModule_providers</title>
<polygon fill="none" stroke="black" points="48,-40.8 48,-92.8 196,-92.8 196,-40.8 48,-40.8"/>
</g>
<g id="clust13" class="cluster">
<title>cluster_ProjectsModule</title>
<polygon fill="none" stroke="black" stroke-dasharray="1,5" points="212,-32.8 212,-100.8 386,-100.8 386,-32.8 212,-32.8"/>
</g>
<g id="clust18" class="cluster">
<title>cluster_ProjectsModule_providers</title>
<polygon fill="none" stroke="black" points="220,-40.8 220,-92.8 378,-92.8 378,-40.8 220,-40.8"/>
</g>
<g id="clust19" class="cluster">
<title>cluster_ReportsModule</title>
<polygon fill="none" stroke="black" stroke-dasharray="1,5" points="394,-32.8 394,-100.8 566,-100.8 566,-32.8 394,-32.8"/>
</g>
<g id="clust24" class="cluster">
<title>cluster_ReportsModule_providers</title>
<polygon fill="none" stroke="black" points="402,-40.8 402,-92.8 558,-92.8 558,-40.8 402,-40.8"/>
</g>
<g id="clust25" class="cluster">
<title>cluster_TagsModule</title>
<polygon fill="none" stroke="black" stroke-dasharray="1,5" points="574,-32.8 574,-100.8 724,-100.8 724,-32.8 574,-32.8"/>
</g>
<g id="clust30" class="cluster">
<title>cluster_TagsModule_providers</title>
<polygon fill="none" stroke="black" points="582,-40.8 582,-92.8 716,-92.8 716,-40.8 582,-40.8"/>
</g>
<!-- HealthModule -->
<g id="node1" class="node">
<title>HealthModule</title>
<polygon fill="#8dd3c7" stroke="black" points="258.37,-160.8 255.37,-164.8 234.37,-164.8 231.37,-160.8 161.63,-160.8 161.63,-124.8 258.37,-124.8 258.37,-160.8"/>
<text text-anchor="middle" x="210" y="-138.6" font-family="Times,serif" font-size="14.00">HealthModule</text>
</g>
<!-- AppModule -->
<g id="node5" class="node">
<title>AppModule</title>
<polygon fill="#8dd3c7" stroke="black" points="370.66,-225.8 367.66,-229.8 346.66,-229.8 343.66,-225.8 287.34,-225.8 287.34,-189.8 370.66,-189.8 370.66,-225.8"/>
<text text-anchor="middle" x="329" y="-203.6" font-family="Times,serif" font-size="14.00">AppModule</text>
</g>
<!-- HealthModule&#45;&gt;AppModule -->
<g id="edge1" class="edge">
<title>HealthModule&#45;&gt;AppModule</title>
<path fill="none" stroke="black" d="M210,-160.82C210,-178.17 210,-201.8 210,-201.8 210,-201.8 277.05,-201.8 277.05,-201.8"/>
<polygon fill="black" stroke="black" points="277.05,-205.3 287.05,-201.8 277.05,-198.3 277.05,-205.3"/>
</g>
<!-- ProjectsModule -->
<g id="node2" class="node">
<title>ProjectsModule</title>
<polygon fill="#8dd3c7" stroke="black" points="381.16,-160.8 378.16,-164.8 357.16,-164.8 354.16,-160.8 276.84,-160.8 276.84,-124.8 381.16,-124.8 381.16,-160.8"/>
<text text-anchor="middle" x="329" y="-138.6" font-family="Times,serif" font-size="14.00">ProjectsModule</text>
</g>
<!-- ProjectsModule&#45;&gt;AppModule -->
<g id="edge2" class="edge">
<title>ProjectsModule&#45;&gt;AppModule</title>
<path fill="none" stroke="black" d="M329,-160.91C329,-160.91 329,-179.79 329,-179.79"/>
<polygon fill="black" stroke="black" points="325.5,-179.79 329,-189.79 332.5,-179.79 325.5,-179.79"/>
</g>
<!-- ReportsModule -->
<g id="node3" class="node">
<title>ReportsModule</title>
<polygon fill="#8dd3c7" stroke="black" points="502.6,-160.8 499.6,-164.8 478.6,-164.8 475.6,-160.8 399.4,-160.8 399.4,-124.8 502.6,-124.8 502.6,-160.8"/>
<text text-anchor="middle" x="451" y="-138.6" font-family="Times,serif" font-size="14.00">ReportsModule</text>
</g>
<!-- ReportsModule&#45;&gt;AppModule -->
<g id="edge3" class="edge">
<title>ReportsModule&#45;&gt;AppModule</title>
<path fill="none" stroke="black" d="M451,-160.82C451,-178.17 451,-201.8 451,-201.8 451,-201.8 380.99,-201.8 380.99,-201.8"/>
<polygon fill="black" stroke="black" points="380.99,-198.3 370.99,-201.8 380.99,-205.3 380.99,-198.3"/>
</g>
<!-- TagsModule -->
<g id="node4" class="node">
<title>TagsModule</title>
<polygon fill="#8dd3c7" stroke="black" points="607.27,-160.8 604.27,-164.8 583.27,-164.8 580.27,-160.8 520.73,-160.8 520.73,-124.8 607.27,-124.8 607.27,-160.8"/>
<text text-anchor="middle" x="564" y="-138.6" font-family="Times,serif" font-size="14.00">TagsModule</text>
</g>
<!-- TagsModule&#45;&gt;AppModule -->
<g id="edge4" class="edge">
<title>TagsModule&#45;&gt;AppModule</title>
<path fill="none" stroke="black" d="M564,-161.08C564,-182.12 564,-213.8 564,-213.8 564,-213.8 380.74,-213.8 380.74,-213.8"/>
<polygon fill="black" stroke="black" points="380.74,-210.3 370.74,-213.8 380.74,-217.3 380.74,-210.3"/>
</g>
<!-- AppService -->
<g id="node6" class="node">
<title>AppService</title>
<ellipse fill="#fdb462" stroke="black" cx="81" cy="-142.8" rx="56.75" ry="18"/>
<text text-anchor="middle" x="81" y="-138.6" font-family="Times,serif" font-size="14.00">AppService</text>
</g>
<!-- AppService&#45;&gt;AppModule -->
<g id="edge5" class="edge">
<title>AppService&#45;&gt;AppModule</title>
<path fill="none" stroke="black" d="M81,-161.08C81,-182.12 81,-213.8 81,-213.8 81,-213.8 277.21,-213.8 277.21,-213.8"/>
<polygon fill="black" stroke="black" points="277.21,-217.3 287.21,-213.8 277.21,-210.3 277.21,-217.3"/>
</g>
<!-- HealthService -->
<g id="node7" class="node">
<title>HealthService</title>
<ellipse fill="#fdb462" stroke="black" cx="122" cy="-66.8" rx="65.97" ry="18"/>
<text text-anchor="middle" x="122" y="-62.6" font-family="Times,serif" font-size="14.00">HealthService</text>
</g>
<!-- HealthService&#45;&gt;HealthModule -->
<g id="edge6" class="edge">
<title>HealthService&#45;&gt;HealthModule</title>
<path fill="none" stroke="black" d="M174.65,-77.69C174.65,-77.69 174.65,-114.59 174.65,-114.59"/>
<polygon fill="black" stroke="black" points="171.15,-114.59 174.65,-124.59 178.15,-114.59 171.15,-114.59"/>
</g>
<!-- ProjectsService -->
<g id="node8" class="node">
<title>ProjectsService</title>
<ellipse fill="#fdb462" stroke="black" cx="299" cy="-66.8" rx="71.21" ry="18"/>
<text text-anchor="middle" x="299" y="-62.6" font-family="Times,serif" font-size="14.00">ProjectsService</text>
</g>
<!-- ProjectsService&#45;&gt;ProjectsModule -->
<g id="edge7" class="edge">
<title>ProjectsService&#45;&gt;ProjectsModule</title>
<path fill="none" stroke="black" d="M323.39,-84.05C323.39,-84.05 323.39,-114.56 323.39,-114.56"/>
<polygon fill="black" stroke="black" points="319.89,-114.56 323.39,-124.56 326.89,-114.56 319.89,-114.56"/>
</g>
<!-- ReportsService -->
<g id="node9" class="node">
<title>ReportsService</title>
<ellipse fill="#fdb462" stroke="black" cx="480" cy="-66.8" rx="70.07" ry="18"/>
<text text-anchor="middle" x="480" y="-62.6" font-family="Times,serif" font-size="14.00">ReportsService</text>
</g>
<!-- ReportsService&#45;&gt;ReportsModule -->
<g id="edge8" class="edge">
<title>ReportsService&#45;&gt;ReportsModule</title>
<path fill="none" stroke="black" d="M456.26,-84.05C456.26,-84.05 456.26,-114.56 456.26,-114.56"/>
<polygon fill="black" stroke="black" points="452.76,-114.56 456.26,-124.56 459.76,-114.56 452.76,-114.56"/>
</g>
<!-- TagsService -->
<g id="node10" class="node">
<title>TagsService</title>
<ellipse fill="#fdb462" stroke="black" cx="649" cy="-66.8" rx="58.53" ry="18"/>
<text text-anchor="middle" x="649" y="-62.6" font-family="Times,serif" font-size="14.00">TagsService</text>
</g>
<!-- TagsService&#45;&gt;TagsModule -->
<g id="edge9" class="edge">
<title>TagsService&#45;&gt;TagsModule</title>
<path fill="none" stroke="black" d="M598.81,-76.43C598.81,-76.43 598.81,-114.55 598.81,-114.55"/>
<polygon fill="black" stroke="black" points="595.31,-114.55 598.81,-124.55 602.31,-114.55 595.31,-114.55"/>
</g>
</g>
</svg>
